<mxfile host="app.diagrams.net" agent="Mozilla/5.0 (Windows NT 10.0; Win64; x64) AppleWebKit/537.36 (KHTML, like Gecko) Chrome/129.0.0.0 Safari/537.36" version="24.7.16">
  <diagram name="Page-1" id="YiskUVjVMauL9IxiQ5-O">
    <mxGraphModel dx="1502" dy="591" grid="1" gridSize="10" guides="1" tooltips="1" connect="1" arrows="1" fold="1" page="1" pageScale="1" pageWidth="850" pageHeight="1100" math="0" shadow="0">
      <root>
        <mxCell id="0" />
        <mxCell id="1" parent="0" />
        <mxCell id="4p4jQn97pWgDcQOe1rQk-1" value="&lt;font style=&quot;font-size: 18px;&quot;&gt;UserInfo&lt;/font&gt;" style="rounded=0;whiteSpace=wrap;html=1;" parent="1" vertex="1">
          <mxGeometry x="100" y="160" width="100" height="50" as="geometry" />
        </mxCell>
        <mxCell id="4p4jQn97pWgDcQOe1rQk-2" value="&lt;font style=&quot;font-size: 16px;&quot;&gt;Username&lt;/font&gt;" style="ellipse;whiteSpace=wrap;html=1;" parent="1" vertex="1">
          <mxGeometry x="40" y="240" width="80" height="40" as="geometry" />
        </mxCell>
        <mxCell id="4p4jQn97pWgDcQOe1rQk-3" value="&lt;font style=&quot;font-size: 15px;&quot;&gt;Password&lt;/font&gt;" style="ellipse;whiteSpace=wrap;html=1;" parent="1" vertex="1">
          <mxGeometry x="160" y="240" width="80" height="40" as="geometry" />
        </mxCell>
        <mxCell id="4p4jQn97pWgDcQOe1rQk-4" value="&lt;font style=&quot;font-size: 16px;&quot;&gt;Role&lt;/font&gt;" style="ellipse;whiteSpace=wrap;html=1;" parent="1" vertex="1">
          <mxGeometry x="160" y="90" width="80" height="40" as="geometry" />
        </mxCell>
        <mxCell id="4p4jQn97pWgDcQOe1rQk-5" value="&lt;u&gt;&lt;font style=&quot;font-size: 15px;&quot;&gt;UserID&lt;/font&gt;&lt;/u&gt;" style="ellipse;whiteSpace=wrap;html=1;" parent="1" vertex="1">
          <mxGeometry x="40" y="90" width="80" height="40" as="geometry" />
        </mxCell>
        <mxCell id="4p4jQn97pWgDcQOe1rQk-9" value="" style="endArrow=none;html=1;rounded=0;entryX=0.5;entryY=1;entryDx=0;entryDy=0;" parent="1" target="4p4jQn97pWgDcQOe1rQk-5" edge="1">
          <mxGeometry width="50" height="50" relative="1" as="geometry">
            <mxPoint x="140" y="160" as="sourcePoint" />
            <mxPoint x="220" y="170" as="targetPoint" />
          </mxGeometry>
        </mxCell>
        <mxCell id="4p4jQn97pWgDcQOe1rQk-11" value="" style="endArrow=none;html=1;rounded=0;entryX=0.5;entryY=1;entryDx=0;entryDy=0;" parent="1" target="4p4jQn97pWgDcQOe1rQk-4" edge="1">
          <mxGeometry width="50" height="50" relative="1" as="geometry">
            <mxPoint x="150" y="160" as="sourcePoint" />
            <mxPoint x="200" y="110" as="targetPoint" />
          </mxGeometry>
        </mxCell>
        <mxCell id="4p4jQn97pWgDcQOe1rQk-12" value="" style="endArrow=none;html=1;rounded=0;entryX=0.5;entryY=1;entryDx=0;entryDy=0;exitX=0.5;exitY=0;exitDx=0;exitDy=0;" parent="1" source="4p4jQn97pWgDcQOe1rQk-3" target="4p4jQn97pWgDcQOe1rQk-1" edge="1">
          <mxGeometry width="50" height="50" relative="1" as="geometry">
            <mxPoint x="140" y="250" as="sourcePoint" />
            <mxPoint x="190" y="220" as="targetPoint" />
          </mxGeometry>
        </mxCell>
        <mxCell id="4p4jQn97pWgDcQOe1rQk-13" value="" style="endArrow=none;html=1;rounded=0;entryX=0.5;entryY=1;entryDx=0;entryDy=0;exitX=0.625;exitY=0.065;exitDx=0;exitDy=0;exitPerimeter=0;" parent="1" source="4p4jQn97pWgDcQOe1rQk-2" target="4p4jQn97pWgDcQOe1rQk-1" edge="1">
          <mxGeometry width="50" height="50" relative="1" as="geometry">
            <mxPoint x="80" y="240" as="sourcePoint" />
            <mxPoint x="130" y="210" as="targetPoint" />
          </mxGeometry>
        </mxCell>
        <mxCell id="4p4jQn97pWgDcQOe1rQk-14" value="&lt;font style=&quot;font-size: 18px;&quot;&gt;Employee&lt;/font&gt;" style="rounded=0;whiteSpace=wrap;html=1;" parent="1" vertex="1">
          <mxGeometry x="540" y="160" width="100" height="55" as="geometry" />
        </mxCell>
        <mxCell id="4p4jQn97pWgDcQOe1rQk-16" value="&lt;font style=&quot;font-size: 16px;&quot;&gt;Position&lt;/font&gt;" style="ellipse;whiteSpace=wrap;html=1;" parent="1" vertex="1">
          <mxGeometry x="670" y="120" width="80" height="40" as="geometry" />
        </mxCell>
        <mxCell id="4p4jQn97pWgDcQOe1rQk-17" value="&lt;font style=&quot;font-size: 15px;&quot;&gt;Gender&lt;/font&gt;" style="ellipse;whiteSpace=wrap;html=1;" parent="1" vertex="1">
          <mxGeometry x="710" y="165" width="80" height="40" as="geometry" />
        </mxCell>
        <mxCell id="4p4jQn97pWgDcQOe1rQk-18" value="&lt;font style=&quot;font-size: 15px;&quot;&gt;Balance&lt;/font&gt;" style="ellipse;whiteSpace=wrap;html=1;" parent="1" vertex="1">
          <mxGeometry x="680" y="240" width="80" height="40" as="geometry" />
        </mxCell>
        <mxCell id="4p4jQn97pWgDcQOe1rQk-19" value="&lt;font style=&quot;font-size: 15px;&quot;&gt;DOJ&lt;/font&gt;" style="ellipse;whiteSpace=wrap;html=1;" parent="1" vertex="1">
          <mxGeometry x="420" y="80" width="80" height="40" as="geometry" />
        </mxCell>
        <mxCell id="4p4jQn97pWgDcQOe1rQk-21" value="&lt;span style=&quot;font-size: 15px;&quot;&gt;Name&lt;/span&gt;" style="ellipse;whiteSpace=wrap;html=1;" parent="1" vertex="1">
          <mxGeometry x="620" y="80" width="80" height="40" as="geometry" />
        </mxCell>
        <mxCell id="4p4jQn97pWgDcQOe1rQk-22" value="&lt;font style=&quot;font-size: 15px;&quot;&gt;Phone&lt;/font&gt;" style="ellipse;whiteSpace=wrap;html=1;" parent="1" vertex="1">
          <mxGeometry x="435" y="240" width="80" height="40" as="geometry" />
        </mxCell>
        <mxCell id="4p4jQn97pWgDcQOe1rQk-23" value="&lt;font style=&quot;font-size: 15px;&quot;&gt;&lt;u&gt;&lt;i&gt;EmpID&lt;/i&gt;&lt;/u&gt;&lt;/font&gt;" style="ellipse;whiteSpace=wrap;html=1;" parent="1" vertex="1">
          <mxGeometry x="510" y="70" width="80" height="40" as="geometry" />
        </mxCell>
        <mxCell id="4p4jQn97pWgDcQOe1rQk-25" value="" style="endArrow=none;html=1;rounded=0;entryX=0.5;entryY=0;entryDx=0;entryDy=0;exitX=0.415;exitY=1.025;exitDx=0;exitDy=0;exitPerimeter=0;" parent="1" source="4p4jQn97pWgDcQOe1rQk-21" target="4p4jQn97pWgDcQOe1rQk-14" edge="1">
          <mxGeometry width="50" height="50" relative="1" as="geometry">
            <mxPoint x="700" y="160" as="sourcePoint" />
            <mxPoint x="640" y="130" as="targetPoint" />
          </mxGeometry>
        </mxCell>
        <mxCell id="4p4jQn97pWgDcQOe1rQk-27" value="" style="endArrow=none;html=1;rounded=0;entryX=0.5;entryY=1;entryDx=0;entryDy=0;exitX=0.5;exitY=0;exitDx=0;exitDy=0;" parent="1" source="4p4jQn97pWgDcQOe1rQk-14" target="4p4jQn97pWgDcQOe1rQk-23" edge="1">
          <mxGeometry width="50" height="50" relative="1" as="geometry">
            <mxPoint x="540" y="150" as="sourcePoint" />
            <mxPoint x="480" y="120" as="targetPoint" />
          </mxGeometry>
        </mxCell>
        <mxCell id="4p4jQn97pWgDcQOe1rQk-28" value="" style="endArrow=none;html=1;rounded=0;entryX=1;entryY=0;entryDx=0;entryDy=0;exitX=0.5;exitY=1;exitDx=0;exitDy=0;" parent="1" source="4p4jQn97pWgDcQOe1rQk-14" target="4p4jQn97pWgDcQOe1rQk-22" edge="1">
          <mxGeometry width="50" height="50" relative="1" as="geometry">
            <mxPoint x="550" y="250" as="sourcePoint" />
            <mxPoint x="490" y="220" as="targetPoint" />
          </mxGeometry>
        </mxCell>
        <mxCell id="4p4jQn97pWgDcQOe1rQk-30" value="" style="endArrow=none;html=1;rounded=0;entryX=0.5;entryY=1;entryDx=0;entryDy=0;exitX=0.5;exitY=0;exitDx=0;exitDy=0;" parent="1" source="4p4jQn97pWgDcQOe1rQk-18" target="4p4jQn97pWgDcQOe1rQk-14" edge="1">
          <mxGeometry width="50" height="50" relative="1" as="geometry">
            <mxPoint x="710" y="240" as="sourcePoint" />
            <mxPoint x="650" y="210" as="targetPoint" />
          </mxGeometry>
        </mxCell>
        <mxCell id="4p4jQn97pWgDcQOe1rQk-31" value="" style="endArrow=none;html=1;rounded=0;entryX=1;entryY=0.25;entryDx=0;entryDy=0;exitX=0;exitY=1;exitDx=0;exitDy=0;" parent="1" source="4p4jQn97pWgDcQOe1rQk-16" target="4p4jQn97pWgDcQOe1rQk-14" edge="1">
          <mxGeometry width="50" height="50" relative="1" as="geometry">
            <mxPoint x="750" y="230" as="sourcePoint" />
            <mxPoint x="640" y="190" as="targetPoint" />
          </mxGeometry>
        </mxCell>
        <mxCell id="4p4jQn97pWgDcQOe1rQk-32" value="" style="endArrow=none;html=1;rounded=0;entryX=1;entryY=1;entryDx=0;entryDy=0;exitX=0;exitY=0;exitDx=0;exitDy=0;" parent="1" source="4p4jQn97pWgDcQOe1rQk-14" target="4p4jQn97pWgDcQOe1rQk-19" edge="1">
          <mxGeometry width="50" height="50" relative="1" as="geometry">
            <mxPoint x="550" y="180" as="sourcePoint" />
            <mxPoint x="440" y="140" as="targetPoint" />
          </mxGeometry>
        </mxCell>
        <mxCell id="4p4jQn97pWgDcQOe1rQk-33" value="" style="endArrow=none;html=1;rounded=0;entryX=1;entryY=0.75;entryDx=0;entryDy=0;exitX=0;exitY=0.5;exitDx=0;exitDy=0;" parent="1" source="4p4jQn97pWgDcQOe1rQk-17" target="4p4jQn97pWgDcQOe1rQk-14" edge="1">
          <mxGeometry width="50" height="50" relative="1" as="geometry">
            <mxPoint x="780" y="240" as="sourcePoint" />
            <mxPoint x="670" y="200" as="targetPoint" />
          </mxGeometry>
        </mxCell>
        <mxCell id="4p4jQn97pWgDcQOe1rQk-34" value="&lt;font style=&quot;font-size: 18px;&quot;&gt;LeaveApply&lt;/font&gt;" style="rounded=0;whiteSpace=wrap;html=1;" parent="1" vertex="1">
          <mxGeometry x="550" y="480" width="110" height="50" as="geometry" />
        </mxCell>
        <mxCell id="4p4jQn97pWgDcQOe1rQk-36" value="&lt;font style=&quot;font-size: 15px;&quot;&gt;Status&lt;/font&gt;" style="ellipse;whiteSpace=wrap;html=1;" parent="1" vertex="1">
          <mxGeometry x="480" y="570" width="80" height="40" as="geometry" />
        </mxCell>
        <mxCell id="4p4jQn97pWgDcQOe1rQk-37" value="&lt;font style=&quot;font-size: 15px;&quot;&gt;&lt;i&gt;EmpID&lt;/i&gt;&lt;/font&gt;" style="ellipse;whiteSpace=wrap;html=1;" parent="1" vertex="1">
          <mxGeometry x="450" y="430" width="80" height="40" as="geometry" />
        </mxCell>
        <mxCell id="4p4jQn97pWgDcQOe1rQk-38" value="&lt;font style=&quot;font-size: 15px;&quot;&gt;End&lt;/font&gt;" style="ellipse;whiteSpace=wrap;html=1;" parent="1" vertex="1">
          <mxGeometry x="700" y="520" width="80" height="40" as="geometry" />
        </mxCell>
        <mxCell id="4p4jQn97pWgDcQOe1rQk-39" value="&lt;span style=&quot;font-size: 15px;&quot;&gt;&lt;u&gt;AppID&lt;/u&gt;&lt;/span&gt;" style="ellipse;whiteSpace=wrap;html=1;" parent="1" vertex="1">
          <mxGeometry x="480" y="380" width="80" height="40" as="geometry" />
        </mxCell>
        <mxCell id="4p4jQn97pWgDcQOe1rQk-40" value="&lt;span style=&quot;font-size: 15px;&quot;&gt;&lt;i&gt;TypeID&lt;/i&gt;&lt;/span&gt;" style="ellipse;whiteSpace=wrap;html=1;" parent="1" vertex="1">
          <mxGeometry x="700" y="400" width="80" height="40" as="geometry" />
        </mxCell>
        <mxCell id="4p4jQn97pWgDcQOe1rQk-41" value="&lt;font style=&quot;font-size: 15px;&quot;&gt;Start&lt;/font&gt;" style="ellipse;whiteSpace=wrap;html=1;" parent="1" vertex="1">
          <mxGeometry x="700" y="460" width="80" height="40" as="geometry" />
        </mxCell>
        <mxCell id="4p4jQn97pWgDcQOe1rQk-42" value="&lt;font style=&quot;font-size: 13px;&quot;&gt;AppliedDate&lt;/font&gt;" style="ellipse;whiteSpace=wrap;html=1;" parent="1" vertex="1">
          <mxGeometry x="680" y="570" width="80" height="40" as="geometry" />
        </mxCell>
        <mxCell id="4p4jQn97pWgDcQOe1rQk-43" value="&lt;font style=&quot;font-size: 15px;&quot;&gt;Reason&lt;/font&gt;" style="ellipse;whiteSpace=wrap;html=1;" parent="1" vertex="1">
          <mxGeometry x="575" y="570" width="80" height="40" as="geometry" />
        </mxCell>
        <mxCell id="4p4jQn97pWgDcQOe1rQk-45" value="" style="endArrow=none;html=1;rounded=0;entryX=0.5;entryY=1;entryDx=0;entryDy=0;exitX=0;exitY=0;exitDx=0;exitDy=0;" parent="1" source="4p4jQn97pWgDcQOe1rQk-34" target="4p4jQn97pWgDcQOe1rQk-39" edge="1">
          <mxGeometry width="50" height="50" relative="1" as="geometry">
            <mxPoint x="647" y="420" as="sourcePoint" />
            <mxPoint x="560" y="451" as="targetPoint" />
          </mxGeometry>
        </mxCell>
        <mxCell id="4p4jQn97pWgDcQOe1rQk-46" value="" style="endArrow=none;html=1;rounded=0;exitX=0;exitY=0.5;exitDx=0;exitDy=0;" parent="1" source="4p4jQn97pWgDcQOe1rQk-41" edge="1">
          <mxGeometry width="50" height="50" relative="1" as="geometry">
            <mxPoint x="727" y="480" as="sourcePoint" />
            <mxPoint x="660" y="500" as="targetPoint" />
          </mxGeometry>
        </mxCell>
        <mxCell id="4p4jQn97pWgDcQOe1rQk-47" value="" style="endArrow=none;html=1;rounded=0;entryX=1;entryY=0.5;entryDx=0;entryDy=0;exitX=0;exitY=0;exitDx=0;exitDy=0;" parent="1" source="4p4jQn97pWgDcQOe1rQk-38" target="4p4jQn97pWgDcQOe1rQk-34" edge="1">
          <mxGeometry width="50" height="50" relative="1" as="geometry">
            <mxPoint x="707" y="524.5" as="sourcePoint" />
            <mxPoint x="620" y="555.5" as="targetPoint" />
          </mxGeometry>
        </mxCell>
        <mxCell id="4p4jQn97pWgDcQOe1rQk-48" value="" style="endArrow=none;html=1;rounded=0;entryX=1;entryY=0;entryDx=0;entryDy=0;exitX=0.5;exitY=1;exitDx=0;exitDy=0;" parent="1" source="4p4jQn97pWgDcQOe1rQk-40" target="4p4jQn97pWgDcQOe1rQk-34" edge="1">
          <mxGeometry width="50" height="50" relative="1" as="geometry">
            <mxPoint x="717" y="444.5" as="sourcePoint" />
            <mxPoint x="630" y="475.5" as="targetPoint" />
          </mxGeometry>
        </mxCell>
        <mxCell id="4p4jQn97pWgDcQOe1rQk-49" value="" style="endArrow=none;html=1;rounded=0;entryX=0.5;entryY=0;entryDx=0;entryDy=0;exitX=0.5;exitY=1;exitDx=0;exitDy=0;" parent="1" source="4p4jQn97pWgDcQOe1rQk-34" target="4p4jQn97pWgDcQOe1rQk-43" edge="1">
          <mxGeometry width="50" height="50" relative="1" as="geometry">
            <mxPoint x="687" y="539" as="sourcePoint" />
            <mxPoint x="600" y="570" as="targetPoint" />
          </mxGeometry>
        </mxCell>
        <mxCell id="4p4jQn97pWgDcQOe1rQk-50" value="" style="endArrow=none;html=1;rounded=0;entryX=0.5;entryY=0;entryDx=0;entryDy=0;exitX=0.5;exitY=1;exitDx=0;exitDy=0;" parent="1" source="4p4jQn97pWgDcQOe1rQk-34" target="4p4jQn97pWgDcQOe1rQk-36" edge="1">
          <mxGeometry width="50" height="50" relative="1" as="geometry">
            <mxPoint x="540" y="539" as="sourcePoint" />
            <mxPoint x="453" y="570" as="targetPoint" />
          </mxGeometry>
        </mxCell>
        <mxCell id="4p4jQn97pWgDcQOe1rQk-51" value="" style="endArrow=none;html=1;rounded=0;entryX=0.5;entryY=1;entryDx=0;entryDy=0;exitX=0;exitY=0;exitDx=0;exitDy=0;" parent="1" source="4p4jQn97pWgDcQOe1rQk-34" target="4p4jQn97pWgDcQOe1rQk-37" edge="1">
          <mxGeometry width="50" height="50" relative="1" as="geometry">
            <mxPoint x="560" y="489.5" as="sourcePoint" />
            <mxPoint x="473" y="520.5" as="targetPoint" />
          </mxGeometry>
        </mxCell>
        <mxCell id="4p4jQn97pWgDcQOe1rQk-52" value="" style="endArrow=none;html=1;rounded=0;entryX=0.572;entryY=1.076;entryDx=0;entryDy=0;exitX=0.425;exitY=-0.065;exitDx=0;exitDy=0;entryPerimeter=0;exitPerimeter=0;" parent="1" source="4p4jQn97pWgDcQOe1rQk-42" target="4p4jQn97pWgDcQOe1rQk-34" edge="1">
          <mxGeometry width="50" height="50" relative="1" as="geometry">
            <mxPoint x="703.5" y="574.5" as="sourcePoint" />
            <mxPoint x="616.5" y="605.5" as="targetPoint" />
          </mxGeometry>
        </mxCell>
        <mxCell id="4p4jQn97pWgDcQOe1rQk-63" value="" style="edgeStyle=orthogonalEdgeStyle;rounded=0;orthogonalLoop=1;jettySize=auto;html=1;" parent="1" source="4p4jQn97pWgDcQOe1rQk-53" target="4p4jQn97pWgDcQOe1rQk-55" edge="1">
          <mxGeometry relative="1" as="geometry" />
        </mxCell>
        <mxCell id="4p4jQn97pWgDcQOe1rQk-53" value="&lt;font style=&quot;font-size: 18px;&quot;&gt;LeaveType&lt;/font&gt;" style="rounded=0;whiteSpace=wrap;html=1;" parent="1" vertex="1">
          <mxGeometry x="130" y="477.5" width="100" height="55" as="geometry" />
        </mxCell>
        <mxCell id="4p4jQn97pWgDcQOe1rQk-54" value="&lt;font style=&quot;font-size: 15px;&quot;&gt;TypeName&lt;/font&gt;" style="ellipse;whiteSpace=wrap;html=1;" parent="1" vertex="1">
          <mxGeometry x="10" y="477.5" width="80" height="40" as="geometry" />
        </mxCell>
        <mxCell id="4p4jQn97pWgDcQOe1rQk-55" value="&lt;font style=&quot;font-size: 15px;&quot;&gt;Days&lt;/font&gt;" style="ellipse;whiteSpace=wrap;html=1;" parent="1" vertex="1">
          <mxGeometry x="140" y="580" width="80" height="40" as="geometry" />
        </mxCell>
        <mxCell id="4p4jQn97pWgDcQOe1rQk-56" value="&lt;span style=&quot;font-size: 15px;&quot;&gt;&lt;u&gt;TypeID&lt;/u&gt;&lt;/span&gt;" style="ellipse;whiteSpace=wrap;html=1;" parent="1" vertex="1">
          <mxGeometry x="140" y="400" width="80" height="40" as="geometry" />
        </mxCell>
        <mxCell id="4p4jQn97pWgDcQOe1rQk-57" value="" style="endArrow=none;html=1;rounded=0;entryX=0.5;entryY=1;entryDx=0;entryDy=0;exitX=0.5;exitY=0;exitDx=0;exitDy=0;" parent="1" source="4p4jQn97pWgDcQOe1rQk-55" edge="1">
          <mxGeometry width="50" height="50" relative="1" as="geometry">
            <mxPoint x="220" y="592.5" as="sourcePoint" />
            <mxPoint x="180" y="532.5" as="targetPoint" />
          </mxGeometry>
        </mxCell>
        <mxCell id="4p4jQn97pWgDcQOe1rQk-58" value="" style="endArrow=none;html=1;rounded=0;entryX=1;entryY=0.688;entryDx=0;entryDy=0;exitX=0;exitY=0.5;exitDx=0;exitDy=0;entryPerimeter=0;" parent="1" source="4p4jQn97pWgDcQOe1rQk-53" target="4p4jQn97pWgDcQOe1rQk-54" edge="1">
          <mxGeometry width="50" height="50" relative="1" as="geometry">
            <mxPoint x="140" y="560" as="sourcePoint" />
            <mxPoint x="100" y="500" as="targetPoint" />
          </mxGeometry>
        </mxCell>
        <mxCell id="4p4jQn97pWgDcQOe1rQk-59" value="" style="endArrow=none;html=1;rounded=0;entryX=0.5;entryY=1;entryDx=0;entryDy=0;exitX=0.5;exitY=0;exitDx=0;exitDy=0;" parent="1" source="4p4jQn97pWgDcQOe1rQk-53" target="4p4jQn97pWgDcQOe1rQk-56" edge="1">
          <mxGeometry width="50" height="50" relative="1" as="geometry">
            <mxPoint x="250" y="500" as="sourcePoint" />
            <mxPoint x="210" y="440" as="targetPoint" />
          </mxGeometry>
        </mxCell>
        <mxCell id="4p4jQn97pWgDcQOe1rQk-60" value="&lt;font style=&quot;font-size: 15px;&quot;&gt;has&lt;/font&gt;" style="rhombus;whiteSpace=wrap;html=1;" parent="1" vertex="1">
          <mxGeometry x="305" y="150" width="90" height="80" as="geometry" />
        </mxCell>
        <mxCell id="4p4jQn97pWgDcQOe1rQk-61" value="&lt;span style=&quot;font-size: 15px;&quot;&gt;is used in&lt;/span&gt;" style="rhombus;whiteSpace=wrap;html=1;" parent="1" vertex="1">
          <mxGeometry x="305" y="465" width="100" height="80" as="geometry" />
        </mxCell>
        <mxCell id="4p4jQn97pWgDcQOe1rQk-62" value="&lt;span style=&quot;font-size: 15px;&quot;&gt;Submits&lt;/span&gt;" style="rhombus;whiteSpace=wrap;html=1;" parent="1" vertex="1">
          <mxGeometry x="560" y="310" width="90" height="80" as="geometry" />
        </mxCell>
        <mxCell id="4p4jQn97pWgDcQOe1rQk-65" value="" style="endArrow=none;html=1;rounded=0;entryX=1;entryY=0.5;entryDx=0;entryDy=0;exitX=0;exitY=0.5;exitDx=0;exitDy=0;" parent="1" source="4p4jQn97pWgDcQOe1rQk-14" target="4p4jQn97pWgDcQOe1rQk-60" edge="1">
          <mxGeometry width="50" height="50" relative="1" as="geometry">
            <mxPoint x="450" y="230" as="sourcePoint" />
            <mxPoint x="450" y="182.5" as="targetPoint" />
          </mxGeometry>
        </mxCell>
        <mxCell id="4p4jQn97pWgDcQOe1rQk-66" value="" style="endArrow=none;html=1;rounded=0;entryX=0;entryY=0.5;entryDx=0;entryDy=0;exitX=1;exitY=0.5;exitDx=0;exitDy=0;" parent="1" source="4p4jQn97pWgDcQOe1rQk-1" target="4p4jQn97pWgDcQOe1rQk-60" edge="1">
          <mxGeometry width="50" height="50" relative="1" as="geometry">
            <mxPoint x="250" y="215" as="sourcePoint" />
            <mxPoint x="250" y="167.5" as="targetPoint" />
          </mxGeometry>
        </mxCell>
        <mxCell id="4p4jQn97pWgDcQOe1rQk-67" value="" style="endArrow=none;html=1;rounded=0;entryX=0;entryY=0.5;entryDx=0;entryDy=0;exitX=1.024;exitY=0.631;exitDx=0;exitDy=0;exitPerimeter=0;" parent="1" source="4p4jQn97pWgDcQOe1rQk-53" target="4p4jQn97pWgDcQOe1rQk-61" edge="1">
          <mxGeometry width="50" height="50" relative="1" as="geometry">
            <mxPoint x="260" y="550.5" as="sourcePoint" />
            <mxPoint x="260" y="503" as="targetPoint" />
          </mxGeometry>
        </mxCell>
        <mxCell id="4p4jQn97pWgDcQOe1rQk-68" value="" style="endArrow=none;html=1;rounded=0;exitX=0;exitY=0.5;exitDx=0;exitDy=0;entryX=1;entryY=0.5;entryDx=0;entryDy=0;" parent="1" source="4p4jQn97pWgDcQOe1rQk-34" target="4p4jQn97pWgDcQOe1rQk-61" edge="1">
          <mxGeometry width="50" height="50" relative="1" as="geometry">
            <mxPoint x="470" y="545" as="sourcePoint" />
            <mxPoint x="410" y="500" as="targetPoint" />
          </mxGeometry>
        </mxCell>
        <mxCell id="4p4jQn97pWgDcQOe1rQk-69" value="" style="endArrow=none;html=1;rounded=0;entryX=0.5;entryY=1;entryDx=0;entryDy=0;exitX=0.5;exitY=0;exitDx=0;exitDy=0;" parent="1" source="4p4jQn97pWgDcQOe1rQk-34" target="4p4jQn97pWgDcQOe1rQk-62" edge="1">
          <mxGeometry width="50" height="50" relative="1" as="geometry">
            <mxPoint x="609.5" y="460" as="sourcePoint" />
            <mxPoint x="609.5" y="412.5" as="targetPoint" />
          </mxGeometry>
        </mxCell>
        <mxCell id="4p4jQn97pWgDcQOe1rQk-70" value="" style="endArrow=none;html=1;rounded=0;exitX=0.5;exitY=0;exitDx=0;exitDy=0;" parent="1" source="4p4jQn97pWgDcQOe1rQk-62" edge="1">
          <mxGeometry width="50" height="50" relative="1" as="geometry">
            <mxPoint x="600" y="287.5" as="sourcePoint" />
            <mxPoint x="590" y="220" as="targetPoint" />
          </mxGeometry>
        </mxCell>
        <mxCell id="4p4jQn97pWgDcQOe1rQk-71" value="&lt;font style=&quot;font-size: 16px;&quot;&gt;1&lt;/font&gt;" style="text;html=1;align=center;verticalAlign=middle;resizable=0;points=[];autosize=1;strokeColor=none;fillColor=none;strokeWidth=6;" parent="1" vertex="1">
          <mxGeometry x="200" y="150" width="30" height="30" as="geometry" />
        </mxCell>
        <mxCell id="4p4jQn97pWgDcQOe1rQk-72" value="&lt;font style=&quot;font-size: 16px;&quot;&gt;1&lt;/font&gt;" style="text;html=1;align=center;verticalAlign=middle;resizable=0;points=[];autosize=1;strokeColor=none;fillColor=none;strokeWidth=6;" parent="1" vertex="1">
          <mxGeometry x="560" y="230" width="30" height="30" as="geometry" />
        </mxCell>
        <mxCell id="4p4jQn97pWgDcQOe1rQk-73" value="&lt;span style=&quot;font-size: 16px;&quot;&gt;0..1&lt;/span&gt;" style="text;html=1;align=center;verticalAlign=middle;resizable=0;points=[];autosize=1;strokeColor=none;fillColor=none;strokeWidth=6;" parent="1" vertex="1">
          <mxGeometry x="470" y="150" width="50" height="30" as="geometry" />
        </mxCell>
        <mxCell id="4p4jQn97pWgDcQOe1rQk-74" value="&lt;span style=&quot;font-size: 16px;&quot;&gt;0..*&lt;/span&gt;" style="text;html=1;align=center;verticalAlign=middle;resizable=0;points=[];autosize=1;strokeColor=none;fillColor=none;strokeWidth=6;" parent="1" vertex="1">
          <mxGeometry x="600" y="440" width="50" height="30" as="geometry" />
        </mxCell>
        <mxCell id="4p4jQn97pWgDcQOe1rQk-75" value="&lt;span style=&quot;font-size: 16px;&quot;&gt;0..*&lt;/span&gt;" style="text;html=1;align=center;verticalAlign=middle;resizable=0;points=[];autosize=1;strokeColor=none;fillColor=none;strokeWidth=6;" parent="1" vertex="1">
          <mxGeometry x="500" y="510" width="50" height="30" as="geometry" />
        </mxCell>
        <mxCell id="4p4jQn97pWgDcQOe1rQk-76" value="&lt;font style=&quot;font-size: 16px;&quot;&gt;1&lt;/font&gt;" style="text;html=1;align=center;verticalAlign=middle;resizable=0;points=[];autosize=1;strokeColor=none;fillColor=none;strokeWidth=6;" parent="1" vertex="1">
          <mxGeometry x="240" y="470" width="30" height="30" as="geometry" />
        </mxCell>
      </root>
    </mxGraphModel>
  </diagram>
</mxfile>
